# xmcd
#
# Track frame offsets:
#	150
#	12519
#	24727
#	37224
#	50141
#	61007
#	72310
#	82340
#	96095
#	108121
#	119183
#	130442
#	143825
#	155356
#	166279
#	177615
#	188853
#	200388
#	211986
#	221290
#
# Disc length: 3085
#
# Revision: 1
# Processed by: cddbd v1.5.1PL0 Copyright (c) Steve Scherf et al.
# Submitted via: MAGIX_Freedb v0.9beta0
# Normalized: r0:DSETVAR2
#
DISCID=330c0b14
DTITLE=Various Artist - Willie Nelson 20 Country Classics
DYEAR=1998
DGENRE=
TTITLE0=Willie Nelson - Country Willie
TTITLE1=Willlie Nelson - Willingly
TTITLE2=Willie Nelson - Mr Record Man
TTITLE3=Willie Nelson - Crazy
TTITLE4=Willie Nelson - Hello Walls
TTITLE5=Willie Nelson - There´s gonna be love at my house tonight
TTITLE6=Willie Nelson - Touch me
TTITLE7=Willie Nelson - Funny How Time Slips away
TTITLE8=Willie Nelson - This Cold War With You
TTITLE9=Willie Nelson - Half A Man
TTITLE10=Willie Nelson - You Took My Happy Away
TTITLE11=Willie Nelson - The Last Letter
TTITLE12=Willie Nelson - Seasons Of My Heart
TTITLE13=Willie Nelson - I´ll Walk Alone
TTITLE14=Willie Nelson - I Hope So
TTITLE15=Willie Nelson - River Roy
TTITLE16=Willie Nelson - Take Me As I Am (Or Let Me Go)
TTITLE17=Willie Nelson - Undo The Right
TTITLE18=Willie Nelson - Columbus Stockade Blues
TTITLE19=Willie Nelson - There´ll Be No Teardrops Tonight
EXTD=
EXTT0=
EXTT1=
EXTT2=
EXTT3=
EXTT4=
EXTT5=
EXTT6=
EXTT7=
EXTT8=
EXTT9=
EXTT10=
EXTT11=
EXTT12=
EXTT13=
EXTT14=
EXTT15=
EXTT16=
EXTT17=
EXTT18=
EXTT19=
PLAYORDER=
